<svg width="124" height="65" viewBox="0 0 124 65" fill="none" xmlns="http://www.w3.org/2000/svg">
<path d="M18.5417 50.32C15.2137 50.32 12.2057 49.552 9.51772 48.016C6.87239 46.48 4.76039 44.3893 3.18172 41.744C1.64572 39.056 0.856387 36.048 0.813721 32.72V2.51199C0.813721 1.74399 1.02705 1.14666 1.45372 0.71999C1.92305 0.250657 2.54172 0.0159912 3.30972 0.0159912C4.03505 0.0159912 4.61106 0.250657 5.03772 0.71999C5.50706 1.14666 5.74172 1.74399 5.74172 2.51199V21.328C7.14972 19.3227 9.00572 17.7227 11.3097 16.528C13.6564 15.2907 16.2591 14.672 19.1177 14.672C22.4031 14.672 25.3471 15.4613 27.9497 17.04C30.5524 18.576 32.6004 20.688 34.0937 23.376C35.6297 26.064 36.3977 29.0933 36.3977 32.464C36.3977 35.8773 35.6084 38.928 34.0297 41.616C32.4937 44.304 30.3817 46.4373 27.6937 48.016C25.0057 49.552 21.9551 50.32 18.5417 50.32ZM18.5417 45.84C21.0164 45.84 23.2351 45.264 25.1977 44.112C27.1604 42.9173 28.6964 41.3173 29.8057 39.312C30.9577 37.3067 31.5337 35.024 31.5337 32.464C31.5337 29.9467 30.9577 27.6853 29.8057 25.68C28.6964 23.632 27.1604 22.032 25.1977 20.88C23.2351 19.728 21.0164 19.152 18.5417 19.152C16.1097 19.152 13.9124 19.728 11.9497 20.88C9.98705 22.032 8.45106 23.632 7.34172 25.68C6.23239 27.6853 5.67772 29.9467 5.67772 32.464C5.67772 35.024 6.23239 37.3067 7.34172 39.312C8.45106 41.3173 9.98705 42.9173 11.9497 44.112C13.9124 45.264 16.1097 45.84 18.5417 45.84Z" fill="white"/>
<path d="M61.0397 50.32C57.6264 50.32 54.5757 49.552 51.8877 48.016C49.1997 46.48 47.0877 44.368 45.5517 41.68C44.0157 38.992 43.2477 35.9413 43.2477 32.528C43.2477 29.072 44.0157 26 45.5517 23.312C47.0877 20.624 49.1997 18.512 51.8877 16.976C54.5757 15.44 57.6264 14.672 61.0397 14.672C64.4531 14.672 67.4824 15.44 70.1277 16.976C72.8157 18.512 74.9277 20.624 76.4637 23.312C77.9997 26 78.7891 29.072 78.8317 32.528C78.8317 35.9413 78.0424 38.992 76.4637 41.68C74.9277 44.368 72.8157 46.48 70.1277 48.016C67.4824 49.552 64.4531 50.32 61.0397 50.32ZM61.0397 45.84C63.5144 45.84 65.7331 45.264 67.6957 44.112C69.6584 42.96 71.1944 41.3813 72.3037 39.376C73.4131 37.3707 73.9677 35.088 73.9677 32.528C73.9677 29.968 73.4131 27.6853 72.3037 25.68C71.1944 23.632 69.6584 22.032 67.6957 20.88C65.7331 19.728 63.5144 19.152 61.0397 19.152C58.5651 19.152 56.3464 19.728 54.3837 20.88C52.4211 22.032 50.8637 23.632 49.7117 25.68C48.6024 27.6853 48.0477 29.968 48.0477 32.528C48.0477 35.088 48.6024 37.3707 49.7117 39.376C50.8637 41.3813 52.4211 42.96 54.3837 44.112C56.3464 45.264 58.5651 45.84 61.0397 45.84Z" fill="white"/>
<path d="M89.9522 64.976C89.1842 64.976 88.5656 64.7413 88.0962 64.272C87.6696 63.8453 87.4562 63.248 87.4562 62.48V32.272C87.4989 28.944 88.2882 25.9573 89.8242 23.312C91.4029 20.624 93.5149 18.512 96.1602 16.976C98.8482 15.44 101.856 14.672 105.184 14.672C108.598 14.672 111.648 15.4613 114.336 17.04C117.024 18.576 119.136 20.688 120.672 23.376C122.251 26.064 123.04 29.1147 123.04 32.528C123.04 35.8987 122.272 38.928 120.736 41.616C119.243 44.304 117.195 46.4373 114.592 48.016C111.99 49.552 109.046 50.32 105.76 50.32C102.902 50.32 100.299 49.7227 97.9522 48.528C95.6482 47.2907 93.7922 45.6693 92.3842 43.664V62.48C92.3842 63.248 92.1496 63.8453 91.6802 64.272C91.2536 64.7413 90.6776 64.976 89.9522 64.976ZM105.184 45.84C107.659 45.84 109.878 45.264 111.84 44.112C113.803 42.96 115.339 41.3813 116.448 39.376C117.6 37.328 118.176 35.0453 118.176 32.528C118.176 29.968 117.6 27.6853 116.448 25.68C115.339 23.6747 113.803 22.096 111.84 20.944C109.878 19.7493 107.659 19.152 105.184 19.152C102.752 19.152 100.555 19.7493 98.5922 20.944C96.6296 22.096 95.0936 23.6747 93.9842 25.68C92.8749 27.6853 92.3202 29.968 92.3202 32.528C92.3202 35.0453 92.8749 37.328 93.9842 39.376C95.0936 41.3813 96.6296 42.96 98.5922 44.112C100.555 45.264 102.752 45.84 105.184 45.84Z" fill="white"/>
</svg>